<svg width="600" height="620" viewBox="0 0 565 569" fill="none" xmlns="http://www.w3.org/2000/svg">
  <!-- Remove background fill to make it transparent -->
  <rect width="565" height="449.956" fill="none"/>
  
  <rect x="159.297" y="6.81641" width="196.49" height="399.852" fill="#6729FF"/>
  <ellipse cx="258.798" cy="34.2525" rx="6.03038" ry="5.96437" fill="white"/>
  <ellipse cx="315.585" cy="34.2525" rx="6.03038" ry="5.96437" fill="white"/>
  <ellipse cx="259.552" cy="34.2524" rx="3.26646" ry="3.10147" fill="black"/>
  <ellipse cx="316.841" cy="34.2524" rx="3.26646" ry="3.10147" fill="black"/>
  <rect x="284.428" y="29.7197" width="9.04557" height="35.7862" fill="black"/>
  <rect x="296.99" y="123.241" width="117.592" height="283.427" fill="#CF0000"/>
  <ellipse cx="380.911" cy="163.321" rx="9.5481" ry="9.06585" fill="#D9D9D9"/>
  <ellipse cx="382.922" cy="163.322" rx="5.02532" ry="4.7715" fill="black"/>
  <ellipse cx="412.07" cy="163.321" rx="9.5481" ry="9.06585" fill="#D9D9D9"/>
  <ellipse cx="413.578" cy="163.322" rx="5.02532" ry="4.7715" fill="black"/>
  <path d="M351 410C351 367.831 334.09 327.388 303.991 297.57C273.891 267.752 233.067 251 190.5 251C147.933 251 107.109 267.752 77.0094 297.57C46.9098 327.388 30 367.831 30 410L190.5 410H351Z" fill="#FF8533"/>
  <ellipse cx="197.99" cy="352.78" rx="8.04051" ry="7.78216" fill="black"/>
  <ellipse cx="272.365" cy="352.78" rx="8.04051" ry="7.78216" fill="black"/>
  <path d="M252.766 364.454C252.766 366.434 252.363 368.395 251.58 370.224C250.798 372.053 249.65 373.716 248.204 375.116C246.757 376.516 245.04 377.626 243.149 378.384C241.259 379.142 239.234 379.532 237.188 379.532C235.142 379.532 233.116 379.142 231.226 378.384C229.336 377.626 227.619 376.516 226.172 375.116C224.726 373.716 223.578 372.053 222.795 370.224C222.012 368.395 221.609 366.434 221.609 364.454L237.188 364.454H252.766Z" fill="black"/>
  <ellipse cx="449.093" cy="263.122" rx="68.093" ry="66.5624" fill="#E6CB0C"/>
  <rect x="381" y="270.995" width="136.186" height="135.988" fill="#E6CB0C"/>
  <rect x="471.455" y="262.884" width="83.9228" height="8.11155" fill="black"/>
  <ellipse cx="441.262" cy="246.372" rx="5.02532" ry="4.7715" fill="black"/>
</svg>
